<svg xmlns="http://www.w3.org/2000/svg" xmlns:xlink="http://www.w3.org/1999/xlink" viewBox="0 0 120 120"><defs><style>.a{fill:url(#a);}.b,.d{fill:none;stroke:#239b2b;stroke-miterlimit:10;}.b{stroke-width:2px;}.c{fill:#239b2b;}.d{stroke-linecap:round;stroke-width:3px;}</style><linearGradient id="a" x1="104.33" y1="87.66" x2="23.33" y2="39.33" gradientUnits="userSpaceOnUse"><stop offset="0" stop-color="#e0ffef" stop-opacity="0.8"/><stop offset="1" stop-color="#e0ffef" stop-opacity="0.05"/></linearGradient></defs><rect class="a" x="23" y="34" width="80" height="58" rx="6.58" ry="6.58"/><rect class="b" x="20" y="31" width="80" height="58" rx="6.58" ry="6.58"/><path class="c" d="M54.24,65.3H44.7l-2.63,8.08h-2.9l8.74-25.59h3.18l8.78,25.59H56.79ZM53.5,63l-1.32-4.16c-1-2.9-1.79-5.66-2.66-8.67h-.14c-.84,3-1.68,5.77-2.62,8.67L45.43,63Z"/><path class="c" d="M63.57,47.79h6.29c7.87,0,12,4.65,12,12.69S77.73,73.38,70,73.38h-6.4ZM69.62,71c6.22,0,9.23-4,9.23-10.52s-3-10.32-9.23-10.32H66.47V71Z"/><line class="d" x1="26.5" y1="36.5" x2="92.5" y2="82.5"/></svg>