<svg xmlns="http://www.w3.org/2000/svg" xmlns:xlink="http://www.w3.org/1999/xlink" viewBox="0 0 120 120"><defs><style>.a{fill:url(#a);}.b,.c{fill:none;stroke:#239b2b;stroke-miterlimit:10;}.b{stroke-width:2px;}.c{stroke-linecap:round;stroke-width:3px;}</style><linearGradient id="a" x1="90.8" y1="77.95" x2="36.8" y2="45.61" gradientUnits="userSpaceOnUse"><stop offset="0" stop-color="#e0ffef" stop-opacity="0.8"/><stop offset="1" stop-color="#e0ffef" stop-opacity="0.05"/></linearGradient></defs><path class="a" d="M29.19,45.23V76.77a6,6,0,0,0,3,5.19L59.5,97.73a6,6,0,0,0,6,0L92.81,82a6,6,0,0,0,3-5.19V45.23a6,6,0,0,0-3-5.19L65.5,24.27a6,6,0,0,0-6,0L32.19,40A6,6,0,0,0,29.19,45.23Z"/><path class="b" d="M26.19,43.23V74.77a6,6,0,0,0,3,5.19L56.5,95.73a6,6,0,0,0,6,0L89.81,80a6,6,0,0,0,3-5.19V43.23a6,6,0,0,0-3-5.19L62.5,22.27a6,6,0,0,0-6,0L29.19,38A6,6,0,0,0,26.19,43.23Z"/><line class="c" x1="59.11" y1="58.54" x2="59.11" y2="90.54"/><line class="c" x1="31.26" y1="42.54" x2="58.97" y2="58.54"/><line class="c" x1="59.26" y1="58.54" x2="86.97" y2="42.54"/></svg>