<svg xmlns="http://www.w3.org/2000/svg" xmlns:xlink="http://www.w3.org/1999/xlink" viewBox="0 0 120 120"><defs><style>.a{fill:url(#a);}.b,.c{fill:none;stroke:#239b2b;stroke-miterlimit:10;}.b{stroke-width:2px;}.c{stroke-linecap:round;stroke-width:3px;}</style><linearGradient id="a" x1="117.66" y1="107.9" x2="36.66" y2="33.4" gradientUnits="userSpaceOnUse"><stop offset="0" stop-color="#e0ffef" stop-opacity="0.8"/><stop offset="1" stop-color="#e0ffef" stop-opacity="0.05"/></linearGradient></defs><path class="a" d="M91.29,34.89l-.78-2.06-2.16-.26C79.29,31.49,71.15,29,64.8,25.24L63,24.18l-1.8,1.06C54.85,29,46.71,31.49,37.65,32.57l-2.15.26-.79,2.06A58.37,58.37,0,0,0,31,55.61C31,95.17,62.23,99.7,62.54,99.75l.56.07.55-.1a39.14,39.14,0,0,0,15.79-7.79C86.54,86.21,95,75.26,95,55.61A58.37,58.37,0,0,0,91.29,34.89Z"/><path class="b" d="M87.41,32.91l-.76-2-2.09-.25c-8.78-1.05-16.66-3.51-22.81-7.11l-1.75-1-1.74,1c-6.15,3.6-14,6.06-22.82,7.11l-2.08.25-.77,2A56.72,56.72,0,0,0,29,53c0,38.33,30.25,42.72,30.56,42.76l.54.07.53-.1a37.75,37.75,0,0,0,15.29-7.54C82.8,82.63,91,72,91,53A56.72,56.72,0,0,0,87.41,32.91Z"/><line class="c" x1="38.5" y1="56.18" x2="81.5" y2="56.18"/><line class="c" x1="60" y1="32.68" x2="60" y2="87.68"/></svg>