<svg xmlns="http://www.w3.org/2000/svg" xmlns:xlink="http://www.w3.org/1999/xlink" viewBox="0 0 120 120"><defs><style>.a{fill:url(#a);}.b{fill:none;stroke:#239b2b;stroke-miterlimit:10;stroke-width:2px;}.c{fill:#239b2b;}</style><linearGradient id="a" x1="104.06" y1="71.48" x2="41.39" y2="65.48" gradientUnits="userSpaceOnUse"><stop offset="0" stop-color="#e0ffef" stop-opacity="0.8"/><stop offset="1" stop-color="#e0ffef" stop-opacity="0.05"/></linearGradient></defs><rect class="a" x="22.5" y="41" width="80" height="53" rx="6.58" ry="6.58"/><rect class="b" x="19.5" y="38" width="80" height="53" rx="6.58" ry="6.58"/><path class="c" d="M28.27,53.87H40.49v2.25H31v7.16H39v2.25H31V75H28.27Z"/><path class="c" d="M55.85,75l-5.14-9H46.9v9H44.21V53.87h6.64c4.3,0,7.39,1.53,7.39,5.94a5.74,5.74,0,0,1-4.79,6L58.88,75Zm-9-11.15h3.55c3.32,0,5.14-1.32,5.14-4.07S53.77,56,50.45,56H46.9Z"/><path class="c" d="M62.55,53.87H74.76v2.25H65.23v6.64h8V65h-8v7.71h9.85V75H62.55Z"/><path class="c" d="M79.52,53.87H91.73v2.25H82.21v6.64h8V65h-8v7.71h9.84V75H79.52Z"/><polyline class="b" points="39.5 38 59.5 30 79.5 38"/></svg>