<svg xmlns="http://www.w3.org/2000/svg" xmlns:xlink="http://www.w3.org/1999/xlink" viewBox="0 0 140 140"><defs><style>.a,.f{fill:none;stroke:#fff;stroke-miterlimit:10;}.a{stroke-width:3px;}.b{fill:url(#a);}.c{fill:url(#b);}.d{fill:url(#c);}.e{fill:url(#d);}.f{stroke-width:2px;}</style><linearGradient id="a" x1="72.33" y1="60" x2="43.99" y2="60" gradientTransform="translate(115 5) rotate(90)" gradientUnits="userSpaceOnUse"><stop offset="0" stop-color="#69ff81" stop-opacity="0.8"/><stop offset="1" stop-color="#69ff81" stop-opacity="0.05"/></linearGradient><linearGradient id="b" x1="110.33" y1="60" x2="81.99" y2="60" gradientTransform="translate(153 -33) rotate(90)" xlink:href="#a"/><linearGradient id="c" x1="72.33" y1="88" x2="43.99" y2="88" gradientTransform="translate(143 33) rotate(90)" xlink:href="#a"/><linearGradient id="d" x1="110.33" y1="88" x2="81.99" y2="88" gradientTransform="translate(181 -5) rotate(90)" xlink:href="#a"/></defs><rect class="a" x="29" y="21.5" width="82" height="97" rx="9" ry="9" transform="translate(0 140) rotate(-90)"/><rect class="b" x="45.86" y="48" width="18.28" height="24" rx="6" ry="6" transform="translate(-5 115) rotate(-90)"/><rect class="c" x="83.86" y="48" width="18.28" height="24" rx="6" ry="6" transform="translate(33 153) rotate(-90)"/><rect class="d" x="45.86" y="76" width="18.28" height="24" rx="6" ry="6" transform="translate(-33 143) rotate(-90)"/><rect class="e" x="83.86" y="76" width="18.28" height="24" rx="6" ry="6" transform="translate(5 181) rotate(-90)"/><rect class="f" x="41.86" y="44" width="18.28" height="24" rx="6" ry="6" transform="translate(-5 107) rotate(-90)"/><rect class="f" x="79.86" y="44" width="18.28" height="24" rx="6" ry="6" transform="translate(33 145) rotate(-90)"/><rect class="f" x="41.86" y="72" width="18.28" height="24" rx="6" ry="6" transform="translate(-33 135) rotate(-90)"/><rect class="f" x="79.86" y="72" width="18.28" height="24" rx="6" ry="6" transform="translate(5 173) rotate(-90)"/></svg>